<?xml version="1.0" encoding="UTF-8"?>
<svg xmlns="http://www.w3.org/2000/svg" viewBox="0 0 320 320" width="320" height="320" role="img" aria-label="Audiophore">
  <title>Audiophore</title>
  
  <!-- Single-color teal version. Use when full color isn't available. -->
  
  <rect x="132" y="4"   width="56" height="56" rx="6" fill="#00D4C8"/>
  
  <rect x="68"  y="68"  width="56" height="56" rx="6" fill="#00D4C8" opacity="0.85"/>
  <rect x="132" y="68"  width="56" height="56" rx="6" fill="#00D4C8"/>
  <rect x="196" y="68"  width="56" height="56" rx="6" fill="#00D4C8" opacity="0.85"/>
  
  <rect x="4"   y="132" width="56" height="56" rx="6" fill="#00D4C8" opacity="0.6"/>
  <rect x="68"  y="132" width="56" height="56" rx="6" fill="#00D4C8" opacity="0.85"/>
  <rect x="132" y="132" width="56" height="56" rx="6" fill="#00D4C8"/>
  <rect x="196" y="132" width="56" height="56" rx="6" fill="#00D4C8" opacity="0.85"/>
  <rect x="260" y="132" width="56" height="56" rx="6" fill="#00D4C8" opacity="0.6"/>
  
  <rect x="68"  y="196" width="56" height="56" rx="6" fill="#00D4C8" opacity="0.85"/>
  <rect x="132" y="196" width="56" height="56" rx="6" fill="#00D4C8"/>
  <rect x="196" y="196" width="56" height="56" rx="6" fill="#00D4C8" opacity="0.85"/>
  
  <rect x="132" y="260" width="56" height="56" rx="6" fill="#00D4C8"/>
</svg>
