<?xml version="1.0" encoding="UTF-8"?>
<svg xmlns="http://www.w3.org/2000/svg" viewBox="0 0 2093 320" 
     width="2093" height="320" 
     role="img" aria-label="audiophore">
  <title>audiophore</title>
  
  <!-- Symbol -->
  <g transform="translate(0, 0)">
    <!-- 
    Grid system: 320x320 viewBox, 5x5 pixel grid.
    Each pixel: 56px wide with 8px gap. Total: 5*56 + 4*8 = 312. 
    Centered: (320-312)/2 = 4px outer padding.
    Pixel positions: 4, 68, 132, 196, 260
    
    Grid layout (X = lit, . = empty, with row-color mapping):
      Row 0  (highs / cyan):     . . X . .
      Row 1  (mid-high / teal):  . X X X .
      Row 2  (mid / green):      X X X X X
      Row 3  (mid-low / amber):  . X X X .
      Row 4  (bass / magenta):   . . X . .
  -->
  
  <!-- Row 0: highs — cyan -->
  <rect x="132" y="4"   width="56" height="56" rx="6" fill="#00E5FF"/>
  
  <!-- Row 1: mid-highs — teal (with subtle opacity variation for depth) -->
  <rect x="68"  y="68"  width="56" height="56" rx="6" fill="#00D4C8" opacity="0.85"/>
  <rect x="132" y="68"  width="56" height="56" rx="6" fill="#00D4C8"/>
  <rect x="196" y="68"  width="56" height="56" rx="6" fill="#00D4C8" opacity="0.85"/>
  
  <!-- Row 2: mids — green (full row) -->
  <rect x="4"   y="132" width="56" height="56" rx="6" fill="#3DD68C" opacity="0.6"/>
  <rect x="68"  y="132" width="56" height="56" rx="6" fill="#3DD68C" opacity="0.85"/>
  <rect x="132" y="132" width="56" height="56" rx="6" fill="#3DD68C"/>
  <rect x="196" y="132" width="56" height="56" rx="6" fill="#3DD68C" opacity="0.85"/>
  <rect x="260" y="132" width="56" height="56" rx="6" fill="#3DD68C" opacity="0.6"/>
  
  <!-- Row 3: mid-lows — amber -->
  <rect x="68"  y="196" width="56" height="56" rx="6" fill="#FFB020" opacity="0.85"/>
  <rect x="132" y="196" width="56" height="56" rx="6" fill="#FFB020"/>
  <rect x="196" y="196" width="56" height="56" rx="6" fill="#FFB020" opacity="0.85"/>
  
  <!-- Row 4: bass — magenta -->
  <rect x="132" y="260" width="56" height="56" rx="6" fill="#FF2D9C"/>
  </g>
  
  <!-- Wordmark -->
  <g transform="translate(380, 46) scale(0.28694404591104733)">
    <g transform="translate(0, 747) scale(1, -1)">
    <g fill="#FFFFFF" data-color="light-on-dark">
      <path d="M297 560Q362 560 410.5 534.5Q459 509 488 471V551H603V0H488V82Q459 43 409.0 17.0Q359 -9 295 -9Q224 -9 165.0 27.5Q106 64 71.5 129.5Q37 195 37 278Q37 361 71.5 425.0Q106 489 165.5 524.5Q225 560 297 560ZM321 461Q277 461 239.0 439.5Q201 418 177.5 376.5Q154 335 154 278Q154 221 177.5 178.0Q201 135 239.5 112.5Q278 90 321 90Q365 90 403.0 112.0Q441 134 464.5 176.5Q488 219 488 276Q488 333 464.5 375.0Q441 417 403.0 439.0Q365 461 321 461Z" transform="translate(50, 0)"/> <path d="M574 551V0H460V65Q433 31 389.5 11.5Q346 -8 297 -8Q232 -8 180.5 19.0Q129 46 99.5 99.0Q70 152 70 227V551H183V244Q183 170 220.0 130.5Q257 91 321 91Q385 91 422.5 130.5Q460 170 460 244V551Z" transform="translate(728, 0)"/> <path d="M298 560Q352 560 404.5 536.5Q457 513 488 474V740H603V0H488V83Q460 43 410.5 17.0Q361 -9 297 -9Q225 -9 165.5 27.5Q106 64 71.5 129.5Q37 195 37 278Q37 361 71.5 425.0Q106 489 165.5 524.5Q225 560 298 560ZM321 461Q277 461 239.0 439.5Q201 418 177.5 376.5Q154 335 154 278Q154 221 177.5 178.0Q201 135 239.5 112.5Q278 90 321 90Q365 90 403.0 112.0Q441 134 464.5 176.5Q488 219 488 276Q488 333 464.5 375.0Q441 417 403.0 439.0Q365 461 321 461Z" transform="translate(1377, 0)"/> <path d="M60 697Q60 728 81.0 749.0Q102 770 133 770Q163 770 184.0 749.0Q205 728 205 697Q205 666 184.0 645.0Q163 624 133 624Q102 624 81.0 645.0Q60 666 60 697ZM189 551V0H75V551Z" transform="translate(2055, 0)"/> <path d="M38 276Q38 360 75.0 425.0Q112 490 176.0 525.0Q240 560 319 560Q398 560 462.0 525.0Q526 490 563.0 425.0Q600 360 600 276Q600 192 562.0 127.0Q524 62 458.5 26.5Q393 -9 314 -9Q236 -9 173.0 26.5Q110 62 74.0 126.5Q38 191 38 276ZM483 276Q483 336 460.0 377.5Q437 419 399.0 440.0Q361 461 317 461Q273 461 235.5 440.0Q198 419 176.0 377.5Q154 336 154 276Q154 187 199.5 138.5Q245 90 314 90Q358 90 396.5 111.0Q435 132 459.0 174.0Q483 216 483 276Z" transform="translate(2319, 0)"/>
    </g>
    <g fill="#00D4C8" data-color="accent">
      <path d="M381 560Q453 560 512.5 524.5Q572 489 606.0 425.0Q640 361 640 278Q640 195 606.0 129.5Q572 64 512.5 27.5Q453 -9 381 -9Q318 -9 269.0 16.5Q220 42 189 80V-262H75V551H189V470Q218 508 268.0 534.0Q318 560 381 560ZM356 461Q313 461 274.5 439.0Q236 417 212.5 375.0Q189 333 189 276Q189 219 212.5 176.5Q236 134 274.5 112.0Q313 90 356 90Q400 90 438.5 112.5Q477 135 500.5 178.0Q524 221 524 278Q524 335 500.5 376.5Q477 418 438.5 439.5Q400 461 356 461Z" transform="translate(2957, 0)"/> <path d="M579 325V0H466V308Q466 382 429.0 421.5Q392 461 328 461Q264 461 226.5 421.5Q189 382 189 308V0H75V740H189V487Q218 522 262.5 541.0Q307 560 360 560Q423 560 472.5 533.0Q522 506 550.5 453.0Q579 400 579 325Z" transform="translate(3635, 0)"/> <path d="M38 276Q38 360 75.0 425.0Q112 490 176.0 525.0Q240 560 319 560Q398 560 462.0 525.0Q526 490 563.0 425.0Q600 360 600 276Q600 192 562.0 127.0Q524 62 458.5 26.5Q393 -9 314 -9Q236 -9 173.0 26.5Q110 62 74.0 126.5Q38 191 38 276ZM483 276Q483 336 460.0 377.5Q437 419 399.0 440.0Q361 461 317 461Q273 461 235.5 440.0Q198 419 176.0 377.5Q154 336 154 276Q154 187 199.5 138.5Q245 90 314 90Q358 90 396.5 111.0Q435 132 459.0 174.0Q483 216 483 276Z" transform="translate(4284, 0)"/> <path d="M354 560V442H325Q258 442 223.5 408.0Q189 374 189 290V0H75V551H189V471Q214 513 255.5 536.5Q297 560 354 560Z" transform="translate(4922, 0)"/> <path d="M576 233H155Q160 167 204.0 127.0Q248 87 312 87Q404 87 442 164H565Q540 88 474.5 39.5Q409 -9 312 -9Q233 -9 170.5 26.5Q108 62 72.5 126.5Q37 191 37 276Q37 361 71.5 425.5Q106 490 168.5 525.0Q231 560 312 560Q390 560 451.0 526.0Q512 492 546.0 430.5Q580 369 580 289Q580 258 576 233ZM461 325Q460 388 416.0 426.0Q372 464 307 464Q248 464 206.0 426.5Q164 389 156 325Z" transform="translate(5306, 0)"/>
    </g>
  </g>
  </g>
</svg>
